{
	"asset":{
		"generator":"Khronos glTF Blender I/O v3.5.30",
		"version":"2.0"
	},
	"extensionsUsed":[
		"KHR_materials_specular",
		"KHR_materials_ior"
	],
	"scene":0,
	"scenes":[
		{
			"name":"Scene",
			"nodes":[
				0
			]
		}
	],
	"nodes":[
		{
			"mesh":0,
			"name":"Icosphere",
			"scale":[
				10,
				10,
				10
			]
		}
	],
	"materials":[
		{
			"doubleSided":true,
			"extensions":{
				"KHR_materials_specular":{
					"specularColorFactor":[
						1.42281462520241,
						1.42281462520241,
						1.42281462520241
					]
				},
				"KHR_materials_ior":{
					"ior":1.4500000476837158
				}
			},
			"name":"white",
			"pbrMetallicRoughness":{
				"metallicFactor":0,
				"roughnessFactor":0.30000001192092896
			}
		},
		{
			"doubleSided":true,
			"extensions":{
				"KHR_materials_specular":{
					"specularColorFactor":[
						1.42281462520241,
						1.42281462520241,
						1.42281462520241
					]
				},
				"KHR_materials_ior":{
					"ior":1.4500000476837158
				}
			},
			"name":"black",
			"pbrMetallicRoughness":{
				"baseColorFactor":[
					0,
					0,
					0,
					1
				],
				"metallicFactor":0,
				"roughnessFactor":0.30000001192092896
			}
		}
	],
	"meshes":[
		{
			"name":"Icosphere",
			"primitives":[
				{
					"attributes":{
						"POSITION":0,
						"TEXCOORD_0":1,
						"NORMAL":2
					},
					"indices":3,
					"material":0
				},
				{
					"attributes":{
						"POSITION":4,
						"TEXCOORD_0":5,
						"NORMAL":6
					},
					"indices":7,
					"material":1
				}
			]
		}
	],
	"accessors":[
		{
			"bufferView":0,
			"componentType":5126,
			"count":48454,
			"max":[
				0.09217917174100876,
				0.08797647804021835,
				0.09235865622758865
			],
			"min":[
				-0.09217917174100876,
				-0.08797647804021835,
				-0.09235865622758865
			],
			"type":"VEC3"
		},
		{
			"bufferView":1,
			"componentType":5126,
			"count":48454,
			"type":"VEC2"
		},
		{
			"bufferView":2,
			"componentType":5126,
			"count":48454,
			"type":"VEC3"
		},
		{
			"bufferView":3,
			"componentType":5123,
			"count":241920,
			"type":"SCALAR"
		},
		{
			"bufferView":4,
			"componentType":5126,
			"count":24111,
			"max":[
				0.09053019434213638,
				0.09224168211221695,
				0.08987929672002792
			],
			"min":[
				-0.09053020179271698,
				-0.09224168211221695,
				-0.08987930417060852
			],
			"type":"VEC3"
		},
		{
			"bufferView":5,
			"componentType":5126,
			"count":24111,
			"type":"VEC2"
		},
		{
			"bufferView":6,
			"componentType":5126,
			"count":24111,
			"type":"VEC3"
		},
		{
			"bufferView":7,
			"componentType":5123,
			"count":120960,
			"type":"SCALAR"
		}
	],
	"bufferViews":[
		{
			"buffer":0,
			"byteLength":581448,
			"byteOffset":0,
			"target":34962
		},
		{
			"buffer":0,
			"byteLength":387632,
			"byteOffset":581448,
			"target":34962
		},
		{
			"buffer":0,
			"byteLength":581448,
			"byteOffset":969080,
			"target":34962
		},
		{
			"buffer":0,
			"byteLength":483840,
			"byteOffset":1550528,
			"target":34963
		},
		{
			"buffer":0,
			"byteLength":289332,
			"byteOffset":2034368,
			"target":34962
		},
		{
			"buffer":0,
			"byteLength":192888,
			"byteOffset":2323700,
			"target":34962
		},
		{
			"buffer":0,
			"byteLength":289332,
			"byteOffset":2516588,
			"target":34962
		},
		{
			"buffer":0,
			"byteLength":241920,
			"byteOffset":2805920,
			"target":34963
		}
	],
	"buffers":[
		{
			"byteLength":3047840,
			"uri":"scene.bin"
		}
	]
}
